<svg xmlns="http://www.w3.org/2000/svg" viewBox="0 0 512 512" role="img" aria-labelledby="title desc">
  <title id="title">M@umora</title>
  <desc id="desc">Logo de M@umora con una letra M y un simbolo de reproduccion.</desc>
  <defs>
    <linearGradient id="bg" x1="92" y1="54" x2="420" y2="458" gradientUnits="userSpaceOnUse">
      <stop stop-color="#1b081f"/>
      <stop offset="0.5" stop-color="#07030b"/>
      <stop offset="1" stop-color="#120019"/>
    </linearGradient>
    <linearGradient id="accent" x1="114" y1="112" x2="406" y2="410" gradientUnits="userSpaceOnUse">
      <stop stop-color="#e50914"/>
      <stop offset="0.38" stop-color="#b326d8"/>
      <stop offset="1" stop-color="#7b2fbe"/>
    </linearGradient>
    <filter id="glow" x="-30%" y="-30%" width="160%" height="160%" color-interpolation-filters="sRGB">
      <feGaussianBlur stdDeviation="14" result="blur"/>
      <feColorMatrix in="blur" type="matrix" values="0 0 0 0 0.48 0 0 0 0 0.18 0 0 0 0 0.75 0 0 0 0.95 0"/>
      <feBlend in="SourceGraphic" mode="screen"/>
    </filter>
  </defs>
  <rect x="28" y="28" width="456" height="456" rx="96" fill="url(#bg)"/>
  <rect x="42" y="42" width="428" height="428" rx="84" fill="none" stroke="url(#accent)" stroke-width="18"/>
  <path
    d="M122 354V156c0-18 12-30 30-30h30c12 0 23 6 30 17l44 73 44-73c7-11 18-17 30-17h30c18 0 30 12 30 30v198h-66V226l-45 74c-6 10-14 15-23 15s-17-5-23-15l-45-74v128h-66Z"
    fill="#f7f1e8"
    filter="url(#glow)"
  />
  <circle cx="256" cy="256" r="68" fill="rgba(0,0,0,0.42)" stroke="url(#accent)" stroke-width="12"/>
  <path d="M239 216v80c0 9 10 14 18 9l62-40c7-5 7-14 0-19l-62-40c-8-5-18 0-18 10Z" fill="#fff"/>
  <path d="M90 96c36-38 88-58 147-58" fill="none" stroke="#ffffff" stroke-width="11" stroke-linecap="round" opacity="0.32"/>
</svg>
